# xmcd
#
# Track frame offsets: 
#        150
#        19565
#        38764
#        63308
#        83952
#        102245
#        121532
#        149053
#        173008
#        189361
#        216050
#
# Disc length: 3157 seconds
#
# Revision: 0
# Processed by: cddbd v1.5.2PL0 Copyright (c) Steve Scherf et al.
# Submitted via: ExactAudioCopy v0.99pb5
#
DISCID=8b0c530b
DTITLE=Vasti Jackson - Stimulus Man
DYEAR=2010
DGENRE=Blues
TTITLE0=Blues Booty
TTITLE1=Stimulus Man
TTITLE2=Juke Joint Jump
TTITLE3=Extra Special
TTITLE4=My Computer
TTITLE5=Cohgb
TTITLE6=I'll Dry Your Tears
TTITLE7=Angel of Mercy
TTITLE8=Only So Much Oil
TTITLE9=No Pay Day
TTITLE10=Climbing
EXTD=
EXTT0=
EXTT1=
EXTT2=
EXTT3=
EXTT4=
EXTT5=
EXTT6=
EXTT7=
EXTT8=
EXTT9=
EXTT10=
PLAYORDER=
